<svg xmlns="http://www.w3.org/2000/svg" viewBox="0 0 64 64">
  <!-- Ліве вухо (загнуте) -->
  <path d="M 23 24 C 21 16 21 10 23 9 C 25 8 26 12 24 15 C 23 18 19 19 16 21 C 13 23 11 20 14 17 Z" fill="#b55539"/>
  
  <!-- Праве вухо (стояче) -->
  <path d="M 39 24 C 47 12 44 2 38 2 C 34 2 33 12 34 24 Z" fill="#b55539"/>
  
  <!-- Тіло кролика -->
  <path d="M 24 32 C 16 38 12 46 12 56 C 12 60 16 62 31 62 C 46 62 50 60 50 56 C 50 46 46 38 38 32 Z" fill="#b55539"/>
  
  <!-- Голова кролика -->
  <circle cx="31" cy="28" r="10" fill="#b55539"/>
  
  <!-- Очі -->
  <circle cx="27" cy="27" r="1.5" fill="#4a3b32"/>
  <circle cx="35" cy="27" r="1.5" fill="#4a3b32"/>
  
  <!-- Ніс (закруглений трикутник) -->
  <path d="M 29.5 31 C 29.5 30 32.5 30 32.5 31 C 32.5 32 31.8 32.5 31 32.5 C 30.2 32.5 29.5 32 29.5 31 Z" fill="#4a3b32"/>

  <!-- Рот (милі закруглені вусики/якорець) -->
  <path d="M 31 32.5 C 31 34.5 29.5 35.5 28.5 34.5 M 31 32.5 C 31 34.5 32.5 35.5 33.5 34.5" stroke="#4a3b32" stroke-width="1.2" fill="none" stroke-linecap="round"/>

  <!-- Клубок ниток біля лівої лапи -->
  <circle cx="48" cy="52" r="8" fill="#d9a441"/>
  <!-- Текстурні лінії клубка ниток -->
  <path d="M 43 50 Q 48 46 53 50" stroke="#4a3b32" stroke-width="1.2" fill="none" stroke-linecap="round"/>
  <path d="M 44 54 Q 48 50 52 54" stroke="#4a3b32" stroke-width="1.2" fill="none" stroke-linecap="round"/>
  <path d="M 47 45 Q 51 52 47 57" stroke="#4a3b32" stroke-width="1.2" fill="none" stroke-linecap="round"/>
</svg>
