<?xml version="1.0" encoding="UTF-8" standalone="no"?>
<svg
   version="1.0"
   width="2890.000000pt"
   height="1440.000000pt"
   viewBox="0 0 2890.000000 1440.000000"
   preserveAspectRatio="xMidYMid meet"
   id="svg916"
   xmlns="http://www.w3.org/2000/svg"
   xmlns:svg="http://www.w3.org/2000/svg">
  <defs
     id="defs916" />
  <g
     transform="translate(0.000000,1440.000000) scale(0.100000,-0.100000)"
     fill="#000000"
     stroke="none"
     id="g916">
    <path
       d="M13236 9094 c-35 -11 -66 -32 -107 -73 -46 -47 -61 -56 -76 -49 -17 9 -17 9 0 -5 16 -13 16 -17 2 -50 -8 -20 -16 -47 -16 -59 -1 -20 -2 -21 -6 -3 -3 11 -12 26 -21 33 -9 7 -11 12 -4 12 7 0 12 5 12 11 0 8 -4 8 -14 0 -28 -24 -27 -129 2 -139 7 -2 12 5 12 15 0 15 -2 16 -10 3 -5 -8 -10 -10 -10 -4 0 6 7 17 15 24 12 10 15 10 15 -3 0 -41 43 -147 74 -184 20 -22 33 -43 31 -47 -3 -3 -2 -4 1 -1 4 2 19 -5 35 -16 70 -50 175 -62 270 -32 108 35 199 163 199 282 0 103 -65 212 -159 264 -66 37 -167 46 -245 21z"
       id="path422"
       style="fill:#c4674a;fill-opacity:1" />
    <path
       d="M15063 9094 c-23 -9 -61 -32 -85 -54 -205 -180 -98 -508 173 -528 122 -9 222 47 284 159 26 47 30 64 30 134 0 68 -4 89 -28 138 -32 64 -94 122 -160 149 -52 21 -157 22 -214 2z"
       id="path423"
       style="fill:#c4674a;fill-opacity:1" />
    <path
       d="M13931 8335 c-109 -24 -169 -89 -157 -169 4 -22 8 -51 9 -63 1 -11 4 -20 7 -18 3 2 16 -12 30 -31 13 -20 65 -71 117 -115 51 -45 93 -85 93 -90 0 -6 4 -8 9 -5 4 3 27 -12 50 -33 l41 -38 0 -139 c0 -152 9 -184 65 -220 34 -22 102 -20 134 4 45 33 51 57 51 207 l0 141 38 35 c20 20 73 65 117 101 159 130 214 211 202 299 -7 52 -53 102 -116 125 -64 24 -592 31 -690 9z"
       id="path438"
       style="fill:#c4674a;fill-opacity:1" />
    <path
       d="M15773 7392 c1 -12 6 -18 15 -15 7 3 10 9 5 12 -4 3 -11 10 -15 15 -4 4 -6 -1 -5 -12z"
       id="path445"
       style="fill:#c4674a;fill-opacity:1" />
    <path
       d="M20486 5220 c-45 -14 -82 -56 -105 -120 -26 -71 -91 -146 -160 -183 -116 -64 -220 -84 -601 -117 -359 -32 -509 -66 -715 -164 -216 -103 -347 -199 -525 -382 -183 -189 -282 -333 -401 -579 -153 -317 -237 -654 -309 -1228 -62 -496 -112 -703 -225 -932 -110 -223 -232 -390 -380 -519 -218 -189 -540 -346 -831 -405 -447 -90 -882 -28 -1749 249 -214 68 -493 140 -635 164 -448 75 -875 28 -1405 -154 -443 -152 -550 -178 -770 -187 -120 -5 -298 7 -312 21 -2 2 20 37 50 79 67 94 145 245 186 359 102 291 102 646 0 936 -169 476 -579 831 -1076 929 -122 24 -386 24 -505 0 -193 -39 -420 -137 -568 -247 -155 -115 -317 -296 -406 -456 -134 -239 -198 -532 -174 -792 47 -517 330 -937 785 -1166 398 -199 915 -189 1278 25 l68 41 102 -26 c317 -81 586 -92 871 -35 142 29 239 57 491 144 413 143 604 183 905 192 350 10 529 -22 1035 -182 397 -126 569 -172 847 -229 578 -119 1067 -75 1542 139 222 101 382 207 552 369 329 311 531 703 624 1211 22 121 41 260 75 550 34 285 65 431 157 730 60 196 186 438 313 605 61 80 125 150 136 150 4 0 -16 -69 -43 -152 -47 -147 -192 -679 -297 -1090 -62 -243 -90 -379 -138 -668 -33 -198 -37 -245 -37 -390 0 -150 3 -173 27 -253 72 -235 200 -387 410 -491 154 -76 243 -97 444 -103 125 -4 186 -1 265 12 211 34 477 145 665 278 130 91 304 270 391 400 121 181 185 337 218 533 24 143 15 374 -20 509 -79 306 -205 485 -446 637 -250 157 -588 199 -912 112 -91 -24 -289 -112 -349 -155 -17 -12 -32 -20 -34 -17 -6 6 153 563 205 718 27 80 77 215 112 300 53 129 68 157 93 171 46 27 214 57 406 74 422 36 477 44 593 85 137 47 303 156 402 263 90 97 141 229 120 312 -12 46 -73 103 -129 120 -56 17 -69 17 -111 5z m-777 -2216 c31 -8 94 -33 141 -56 111 -53 228 -168 278 -272 60 -123 76 -201 76 -376 1 -177 -15 -249 -83 -396 -194 -413 -664 -703 -1106 -681 -347 17 -542 216 -521 532 6 95 57 428 81 530 84 361 447 682 830 734 85 12 227 4 304 -15z m-9504 -224 c-8 -13 36 -30 54 -20 8 4 23 5 35 2 18 -5 19 -3 9 10 -10 12 -10 15 2 15 7 0 13 -5 12 -11 -1 -6 13 -11 31 -11 17 -1 32 3 32 7 0 4 -7 8 -17 8 -9 0 -14 2 -11 5 2 3 43 0 89 -6 96 -12 253 -58 319 -94 42 -22 43 -24 18 -25 -16 0 -28 -4 -28 -10 0 -5 -7 -10 -16 -10 -8 0 -13 -4 -10 -8 3 -5 -38 -6 -92 -3 -53 3 -194 6 -314 6 l-216 0 -6 35 c-3 19 -6 52 -6 72 0 40 1 40 83 46 25 2 36 -1 32 -8z m47 3 c-6 -2 -9 -10 -6 -15 4 -7 2 -8 -5 -4 -13 9 -5 26 12 25 9 0 8 -2 -1 -6z m-354 -154 c-9 -6 -16 0 -24 18 -6 14 -13 21 -15 15 -3 -9 -11 -8 -29 1 -14 8 -32 11 -40 9 -37 -11 18 28 65 46 l50 20 3 -51 c2 -33 -1 -53 -10 -58z m-334 -196 c17 -107 47 -232 84 -350 11 -34 17 -65 14 -68 -4 -3 0 -10 8 -15 8 -6 11 -10 5 -10 -12 0 -43 20 -32 20 13 0 -15 25 -37 33 -16 6 -17 5 -7 -7 10 -12 9 -14 -8 -9 -11 3 -19 10 -18 15 1 6 -4 13 -12 16 -8 2 -11 0 -8 -5 3 -5 -3 -9 -14 -9 -10 0 -19 4 -19 8 0 4 -7 5 -15 2 -8 -4 -12 -11 -8 -18 4 -7 3 -8 -4 -1 -15 15 -52 151 -73 271 l-20 109 67 63 c37 34 70 62 74 62 4 0 14 -48 23 -107z m224 23 c14 -5 22 -3 22 4 0 6 4 9 9 5 5 -3 12 -1 16 5 8 14 21 13 37 -3 22 -23 27 -23 42 -2 12 16 15 17 20 5 26 -80 83 -286 80 -292 -2 -3 -19 -10 -37 -13 -36 -8 -59 -23 -52 -35 7 -12 -23 -33 -38 -27 -14 5 -14 -4 -4 -55 5 -25 17 -35 17 -14 0 11 4 14 12 10 8 -5 9 -2 5 9 -4 10 -2 17 4 17 6 0 9 6 6 13 -4 10 2 13 19 9 18 -3 24 0 24 12 0 10 -4 15 -9 12 -11 -7 -33 18 -24 27 12 12 33 7 33 -7 0 -26 31 -47 61 -42 27 4 32 0 56 -47 44 -87 141 -225 224 -318 l79 -88 -52 -45 c-43 -37 -54 -43 -61 -31 -4 9 -13 13 -18 9 -5 -3 -9 -2 -8 3 3 20 -2 34 -11 28 -6 -4 -10 6 -10 22 0 15 -4 23 -8 17 -5 -8 -16 -7 -37 2 -16 7 -26 13 -21 14 5 0 -4 11 -19 24 -27 23 -52 24 -67 3 -3 -6 -31 28 -61 74 -57 88 -120 209 -109 209 4 0 2 4 -5 8 -13 8 -42 72 -80 175 -41 114 -92 361 -65 321 4 -6 17 -14 30 -18z m1373 -60 c21 -24 39 -51 39 -59 0 -23 -68 -214 -96 -268 -16 -32 -31 -49 -46 -51 -25 -4 -37 -28 -14 -28 9 0 16 5 16 12 0 6 3 8 6 5 4 -3 -5 -30 -19 -60 l-27 -53 -52 2 c-29 0 -54 6 -56 12 -5 15 -53 4 -68 -16 -32 -41 -8 17 65 159 50 98 94 203 122 290 l44 136 23 -18 c13 -10 42 -38 63 -63z m-715 45 c-14 -5 -16 -10 -8 -15 16 -10 15 -27 0 -23 -7 1 -13 -7 -13 -18 0 -13 -7 -19 -18 -18 -18 1 -18 0 0 -17 10 -9 24 -15 32 -12 10 4 13 1 8 -11 -3 -9 -1 -19 6 -23 7 -4 9 -4 5 1 -4 4 3 16 15 25 12 10 24 15 27 10 3 -4 16 -4 29 1 19 8 21 12 11 24 -10 12 -7 13 13 10 15 -3 33 3 47 15 12 11 26 17 30 15 5 -3 10 0 12 6 3 8 18 9 46 4 51 -8 46 -26 -6 -20 -46 6 -63 -4 -55 -33 6 -24 18 -28 28 -11 5 7 14 4 28 -8 19 -16 20 -16 8 0 -13 17 -7 23 22 18 4 0 7 3 7 8 0 5 8 8 18 6 9 -1 22 2 29 7 14 11 73 1 73 -12 0 -14 -41 -124 -50 -133 -6 -7 -121 14 -230 43 l-35 9 37 -5 c31 -4 37 -2 32 11 -3 8 -10 13 -14 10 -4 -3 -12 1 -18 8 -15 18 -87 16 -87 -2 0 -8 8 -15 18 -17 11 -1 21 -5 24 -8 3 -3 -39 -3 -93 1 -54 3 -100 10 -102 15 -2 4 -13 8 -23 8 -14 0 -18 -4 -13 -12 6 -10 4 -10 -8 0 -11 9 -18 10 -23 2 -10 -16 -75 -13 -76 5 -1 8 -2 21 -3 28 -1 6 -4 14 -7 17 -6 6 -29 68 -29 81 0 10 60 15 205 17 66 0 111 -3 101 -7z m181 -17 c-3 -3 -12 -4 -19 -1 -8 3 -5 6 6 6 11 1 17 -2 13 -5z m-110 -56 c-3 -7 -5 -2 -5 12 0 14 2 19 5 13 2 -7 2 -19 0 -25z m133 2 c0 -5 -2 -10 -4 -10 -3 0 -8 5 -11 10 -3 6 -1 10 4 10 6 0 11 -4 11 -10z m-1403 -182 c-3 -8 -6 -5 -6 6 -1 11 2 17 5 13 3 -3 4 -12 1 -19z m2103 -84 c0 -8 -6 -14 -14 -14 -9 0 -12 7 -9 20 6 22 23 18 23 -6z m-840 -14 c47 -6 109 -15 138 -21 l53 -11 -22 -36 c-12 -20 -54 -82 -92 -136 l-71 -100 -63 69 c-56 60 -173 221 -173 239 0 9 136 7 230 -4z m870 -58 c21 -46 30 -84 24 -109 -4 -12 -9 -21 -13 -19 -3 2 -6 -9 -7 -25 -1 -39 -118 -273 -191 -384 -192 -290 -512 -595 -817 -778 -53 -32 -102 -55 -108 -51 -6 4 -8 3 -5 -3 4 -6 -5 -15 -19 -22 -14 -6 -23 -7 -19 -2 3 5 1 12 -4 16 -6 3 -7 13 -4 23 6 14 4 15 -9 4 -13 -10 -22 -10 -53 5 -31 15 -37 15 -46 3 -8 -13 -10 -13 -19 0 -6 9 -10 10 -10 3 0 -6 5 -15 11 -19 6 -4 9 -20 6 -39 -8 -48 3 -58 41 -35 18 11 32 16 32 12 0 -8 -194 -105 -273 -136 -38 -15 -39 -15 -134 30 -52 25 -91 49 -87 53 5 4 50 22 99 40 50 18 158 66 241 107 412 203 761 502 1034 883 39 55 76 101 81 101 5 0 8 3 8 8 -1 4 -1 14 0 22 1 13 2 13 11 0 7 -11 10 -11 10 -2 0 7 4 11 9 7 15 -9 31 28 20 46 -7 12 -9 12 -9 0 0 -8 -3 -12 -6 -9 -8 9 41 101 67 123 12 11 19 14 14 6 -6 -11 -2 -13 19 -9 14 3 29 1 32 -3 10 -16 23 -9 21 11 -1 14 -6 19 -17 15 -12 -5 -12 -4 -3 6 10 10 17 9 32 -5 15 -13 21 -14 27 -5 4 7 3 14 -4 17 -6 2 -8 10 -5 18 3 9 -1 14 -12 14 -9 0 -14 -4 -11 -8 2 -4 -4 -8 -14 -8 -10 0 -17 3 -14 7 2 4 -3 10 -12 13 -8 3 -12 2 -9 -4 3 -6 1 -10 -5 -10 -7 0 -10 -6 -7 -13 3 -8 -1 -14 -9 -14 -18 0 -19 -5 13 71 14 36 33 67 42 68 39 8 49 5 61 -20z m-2182 -8 c12 -8 22 -12 22 -8 0 4 6 -1 14 -11 8 -11 12 -23 10 -26 -5 -8 46 -22 54 -14 3 3 -2 5 -11 5 -9 0 -17 5 -17 10 0 14 16 12 28 -3 6 -7 23 -46 38 -87 63 -178 198 -425 316 -579 24 -31 34 -52 25 -48 -10 4 -17 2 -17 -4 0 -5 -11 -2 -25 7 -26 17 -29 16 -19 -10 3 -9 15 -16 26 -16 10 0 16 -5 13 -10 -4 -6 -11 -7 -17 -4 -7 4 -8 2 -4 -4 4 -7 14 -12 22 -12 9 0 12 -5 8 -12 -5 -8 -2 -9 11 -4 12 4 24 0 35 -12 17 -18 15 -20 -43 -52 l-60 -33 -34 39 c-45 53 -132 178 -139 201 -5 15 -4 15 5 3 9 -13 11 -12 11 4 0 15 5 17 26 12 14 -4 32 -2 39 4 10 8 16 7 24 -7 6 -10 10 -13 11 -8 0 24 -18 36 -46 31 -27 -5 -28 -4 -10 9 11 8 14 15 7 15 -7 0 -9 5 -6 10 3 6 1 10 -5 10 -6 0 -8 5 -4 11 4 7 -1 7 -16 -1 -13 -7 -20 -8 -16 -2 3 6 -7 19 -24 29 -17 9 -28 23 -26 29 3 7 -2 15 -10 18 -8 3 -14 0 -14 -7 0 -7 -10 -1 -21 13 -20 24 -21 24 -16 3 9 -41 -2 -24 -42 60 -84 178 -167 467 -133 467 4 0 18 -7 30 -16z m331 -68 c9 -11 9 -16 -1 -22 -7 -4 -10 -4 -6 1 4 4 3 14 -3 22 -6 7 -9 13 -6 13 2 0 10 -6 16 -14z m16 -46 c3 -5 1 -10 -4 -10 -6 0 -11 5 -11 10 0 6 2 10 4 10 3 0 8 -4 11 -10z m1365 -20 c0 -5 -8 -10 -17 -10 -15 0 -16 2 -3 10 19 12 20 12 20 0z m-1252 -14 c-10 -7 -15 -15 -12 -18 2 -3 -2 -8 -10 -11 -11 -4 -13 -1 -9 11 7 19 23 32 38 32 6 -1 2 -7 -7 -14z m97 -46 c14 -27 25 -51 25 -54 0 -11 -39 -12 -44 0 -3 7 -14 11 -26 9 -19 -4 -20 -2 -8 12 9 12 9 15 1 9 -9 -5 -13 0 -14 16 0 21 -1 21 -8 4 -7 -19 -8 -19 -14 3 -5 21 -3 23 24 17 27 -5 34 1 30 27 -3 20 11 2 34 -43z m1110 20 c-3 -5 -12 -10 -18 -10 -7 0 -6 4 3 10 19 12 23 12 15 0z m-1225 -31 c0 -5 -4 -7 -10 -4 -5 3 -10 -3 -10 -14 0 -12 4 -21 10 -21 5 0 6 -8 3 -17 -6 -16 -4 -16 9 -5 14 11 16 10 11 -6 -5 -21 15 -41 26 -25 10 15 40 23 46 13 4 -7 13 -6 26 0 14 8 19 7 19 -1 0 -8 4 -8 15 1 13 11 14 10 10 -3 -4 -8 -1 -18 6 -23 8 -4 10 -3 5 4 -4 7 -5 12 -3 12 3 0 33 -41 66 -90 34 -50 94 -129 133 -177 l71 -87 -29 -23 c-16 -13 -49 -35 -74 -50 l-44 -26 -44 49 c-100 112 -248 339 -297 457 -16 38 -16 38 6 27 12 -7 19 -8 15 -2 -3 6 0 13 6 15 21 9 28 8 28 -4z m17 -31 c-3 -8 -6 -5 -6 6 -1 11 2 17 5 13 3 -3 4 -12 1 -19z m1125 -23 c-3 -5 1 -4 9 3 16 15 29 16 29 1 0 -5 -5 -7 -10 -4 -6 4 -9 1 -8 -7 2 -7 -4 -12 -14 -10 -9 1 -20 -3 -24 -9 -5 -8 -3 -9 5 -5 7 5 18 0 27 -10 14 -18 14 -18 12 0 -2 10 2 21 7 22 11 4 12 -53 2 -61 -4 -3 -5 -2 -2 2 7 9 -35 37 -43 28 -3 -3 0 -10 8 -15 9 -6 10 -10 3 -10 -6 0 -15 5 -18 10 -9 14 -25 12 -22 -2 1 -7 -4 -12 -10 -10 -7 1 -13 -5 -13 -13 0 -8 -4 -15 -10 -15 -5 0 -7 8 -4 18 4 10 3 13 -3 6 -4 -6 -18 -16 -30 -23 -14 -7 -20 -17 -17 -26 4 -8 10 -12 16 -9 5 3 4 -3 -4 -15 -7 -12 -19 -19 -26 -16 -7 3 -11 1 -8 -3 2 -4 1 -14 -5 -22 -5 -10 -9 -11 -9 -3 0 7 -7 10 -15 7 -8 -4 -13 -9 -11 -13 3 -4 -4 -7 -14 -7 -14 0 -4 16 39 66 31 36 79 94 106 129 41 54 50 61 56 45 3 -10 4 -23 1 -29z m73 -45 c-3 -5 -12 -10 -18 -10 -7 0 -6 4 3 10 19 12 23 12 15 0z m45 -15 c-7 -8 -17 -15 -23 -15 -6 0 -2 7 9 15 25 19 30 19 14 0z m-164 -55 c5 5 25 5 46 1 20 -5 40 -5 45 0 4 4 14 5 20 1 17 -11 -73 -126 -92 -118 -9 3 -12 0 -9 -9 6 -15 -80 -112 -200 -228 -92 -88 -305 -249 -319 -240 -5 3 -7 2 -4 -3 5 -9 -102 -81 -203 -136 -68 -37 -141 -68 -135 -58 11 17 -7 11 -21 -7 -12 -16 -13 -16 -9 5 3 20 1 22 -18 17 -20 -5 -20 -5 -3 6 13 8 25 8 41 1 19 -9 23 -8 21 6 -2 12 -11 16 -30 14 -14 -2 -40 4 -58 12 -17 9 -34 14 -36 11 -3 -3 0 -5 8 -5 9 0 10 -3 1 -14 -7 -8 -21 -12 -31 -9 -11 3 -20 0 -20 -6 0 -6 7 -11 15 -11 8 0 15 -4 15 -10 0 -5 -6 -10 -12 -10 -10 0 -9 -3 1 -9 9 -6 10 -10 2 -16 -7 -4 -9 -16 -5 -27 4 -14 2 -18 -5 -14 -6 4 -11 2 -11 -4 0 -7 -7 -9 -16 -6 -10 4 -13 2 -8 -6 5 -8 0 -9 -15 -5 -13 3 -20 3 -17 -1 7 -7 -32 -25 -129 -58 l-69 -24 -55 57 c-42 46 -50 59 -36 61 10 2 20 0 24 -5 7 -10 62 -13 56 -3 -3 4 11 10 30 12 19 2 35 1 35 -4 0 -4 7 -4 17 -1 11 4 14 3 9 -5 -4 -7 -2 -12 4 -12 8 0 9 7 5 18 -20 49 -14 59 49 86 34 14 65 26 70 25 5 0 12 3 15 8 3 5 40 26 81 47 181 93 269 148 435 271 117 87 163 116 150 95 -5 -8 -3 -11 6 -8 8 3 13 11 11 17 -1 8 4 8 18 -1 16 -11 22 -9 35 7 15 20 15 20 8 0 -3 -11 -11 -23 -16 -26 -5 -3 -1 -9 8 -12 9 -4 13 -3 10 2 -3 5 -1 12 5 16 6 3 13 -1 17 -11 5 -14 8 -13 19 7 7 13 13 29 13 34 0 6 -6 -1 -14 -15 -13 -24 -14 -24 -12 -3 1 14 15 29 42 43 22 12 31 14 21 6 -11 -9 -23 -16 -27 -16 -3 0 -4 -12 -1 -26 l5 -27 13 24 c7 13 13 18 14 10 0 -10 3 -11 13 -2 8 6 17 8 20 4 4 -3 7 -1 7 5 0 7 -6 12 -12 12 -9 0 -8 3 2 9 16 11 33 4 25 -10 -4 -5 -1 -9 5 -9 7 0 9 8 5 21 -5 15 -4 19 4 15 6 -4 11 -2 11 4 0 7 -8 9 -19 5 -24 -7 -49 29 -29 41 6 4 8 3 5 -3 -4 -6 2 -13 13 -16 11 -3 20 -1 20 4 0 5 3 8 8 8 17 -3 35 2 29 8 -4 3 1 12 11 19 9 7 19 8 22 4 3 -5 12 -5 20 0 12 7 12 11 -1 27 -12 16 -12 17 1 6 10 -8 21 -9 30 -3 15 9 14 11 -12 14 -7 1 -12 7 -10 14 1 7 -1 11 -5 11 -32 -5 -35 3 -9 30 17 18 24 31 17 35 -6 4 -11 0 -11 -8 0 -8 -4 -17 -9 -20 -5 -4 -8 2 -6 11 2 10 4 28 4 41 1 19 4 21 19 13 11 -6 23 -6 28 -1z m-1580 -205 c28 -60 86 -162 128 -225 74 -112 87 -140 65 -140 -5 0 -8 4 -4 9 3 5 1 12 -5 16 -5 3 -10 2 -10 -3 0 -6 -14 -9 -31 -8 -18 1 -34 -4 -39 -13 -5 -9 -10 -12 -10 -7 0 5 -7 3 -15 -4 -9 -7 -13 -21 -10 -31 12 -38 -7 -17 -26 29 -12 26 -27 62 -35 80 -8 18 -12 37 -8 44 4 7 3 8 -4 4 -7 -4 -12 -2 -12 3 0 6 5 11 12 11 7 0 5 5 -4 13 -33 25 -74 223 -77 367 l0 35 16 -35 c9 -19 40 -84 69 -145z m2308 89 c-4 -32 -9 -53 -12 -46 -2 6 -8 12 -13 12 -6 0 -7 -5 -4 -10 4 -6 2 -9 -3 -8 -5 2 -19 -8 -30 -22 -12 -14 -2 12 21 57 23 45 43 80 45 79 1 -2 -1 -30 -4 -62z m-1206 4 c9 -1 6 -8 -7 -22 l-21 -20 -27 26 -27 27 35 -5 c19 -3 40 -6 47 -6z m247 -67 c-3 -6 -11 -11 -17 -11 -6 0 -6 6 2 15 14 17 26 13 15 -4z m841 -133 c4 -7 3 -8 -4 -4 -11 6 -21 -17 -31 -71 -1 -5 -6 -1 -11 7 -8 13 -10 12 -10 -3 0 -14 5 -17 20 -12 13 4 22 1 26 -9 8 -20 21 -20 41 0 11 10 19 12 26 5 12 -12 -2 -65 -39 -149 -27 -60 -16 -59 -141 -15 -40 14 -73 28 -73 32 0 3 34 49 76 101 41 52 80 102 85 112 11 21 25 23 35 6z m-2105 -331 c-10 -9 -11 -8 -5 6 3 10 9 15 12 12 3 -3 0 -11 -7 -18z m1887 -82 c56 -21 102 -41 102 -45 0 -11 -69 -86 -70 -75 0 6 -16 11 -35 12 -29 3 -36 -1 -41 -21 -5 -22 -8 -24 -37 -14 -40 14 -41 14 -32 28 4 7 11 8 18 2 15 -12 48 -12 41 0 -3 5 -13 7 -22 6 -10 -2 -16 3 -14 10 2 9 -7 13 -25 12 -45 -3 -53 -1 -47 13 3 8 -2 20 -11 27 -13 11 -14 10 -9 -4 4 -12 2 -15 -9 -11 -8 4 -22 -1 -31 -10 -9 -9 -16 -13 -16 -9 0 15 114 124 125 121 5 -3 56 -21 113 -42z m-1315 -32 c-7 -2 -19 -2 -25 0 -7 3 -2 5 12 5 14 0 19 -2 13 -5z m1177 -78 c11 -13 8 -13 -19 -4 -35 12 -40 19 -12 19 10 0 24 -7 31 -15z m140 -55 c0 -5 -7 -7 -15 -4 -8 4 -15 8 -15 10 0 2 7 4 15 4 8 0 15 -4 15 -10z m-625 -260 c25 -9 25 -11 10 -34 -11 -16 -13 -26 -6 -31 6 -3 11 -10 11 -15 0 -14 -160 -32 -250 -28 l-85 3 93 47 c50 26 92 44 92 40 0 -3 6 2 13 13 8 10 19 15 26 11 6 -4 14 -1 17 8 4 11 11 13 30 5 13 -5 35 -13 49 -19z"
       id="path903"
       style="fill:#c4674a;fill-opacity:1" />
    <path
       d="M9640 2040 c6 -11 13 -20 16 -20 2 0 0 9 -6 20 -6 11 -13 20 -16 20 -2 0 0 -9 6 -20z"
       id="path904"
       style="fill:#c4674a;fill-opacity:1" />
    <path
       d="M9894 2002 c4 -3 14 -7 22 -8 9 -1 13 0 10 4 -4 3 -14 7 -22 8 -9 1 -13 0 -10 -4z"
       id="path905"
       style="fill:#c4674a;fill-opacity:1" />
    <path
       d="M9964 1892 c4 -3 14 -7 22 -8 9 -1 13 0 10 4 -4 3 -14 7 -22 8 -9 1 -13 0 -10 -4z"
       id="path906"
       style="fill:#c4674a;fill-opacity:1" />
    <path
       d="M10406 2432 c-3 -6 -1 -14 5 -17 14 -9 20 -2 10 14 -6 8 -11 9 -15 3z"
       id="path907"
       style="fill:#c4674a;fill-opacity:1" />
    <path
       d="M10283 2385 c0 -8 4 -15 9 -15 4 0 8 4 8 9 0 6 -4 12 -8 15 -5 3 -9 -1 -9 -9z"
       id="path908"
       style="fill:#c4674a;fill-opacity:1" />
    <path
       d="M10242 2383 c-13 -3 -19 -9 -16 -15 5 -7 2 -8 -7 -3 -18 12 -49 14 -49 4 0 -4 5 -11 10 -14 6 -4 8 -10 5 -15 -3 -4 5 -6 17 -3 16 3 19 2 10 -4 -9 -7 -6 -12 13 -21 21 -10 27 -9 31 2 3 8 1 23 -4 32 -8 14 -6 21 6 31 10 7 15 12 12 11 -3 0 -15 -3 -28 -5z"
       id="path909"
       style="fill:#c4674a;fill-opacity:1" />
    <path
       d="M10565 2330 c-3 -5 -1 -10 4 -10 6 0 11 5 11 10 0 6 -2 10 -4 10 -3 0 -8 -4 -11 -10z"
       id="path910"
       style="fill:#c4674a;fill-opacity:1" />
    <path
       d="M11378 1933 c7 -3 16 -2 19 1 4 3 -2 6 -13 5 -11 0 -14 -3 -6 -6z"
       id="path911"
       style="fill:#c4674a;fill-opacity:1" />
    <path
       d="M10526 922 c-12 -11 -5 -17 19 -17 14 0 24 4 22 9 -4 11 -33 17 -41 8z"
       id="path912"
       style="fill:#c4674a;fill-opacity:1" />
    <path
       d="M10225 671 c-6 -11 13 -26 22 -17 4 3 1 6 -6 6 -7 0 -9 5 -6 10 3 6 4 10 1 10 -3 0 -7 -4 -11 -9z"
       id="path913"
       style="fill:#c4674a;fill-opacity:1" />
    <path
       d="M9460 1335 c0 -8 4 -15 10 -15 5 0 7 7 4 15 -4 8 -8 15 -10 15 -2 0 -4 -7 -4 -15z"
       id="path914"
       style="fill:#c4674a;fill-opacity:1" />
    <path
       d="M10665 1459 c-9 -14 -2 -20 14 -10 8 6 9 11 3 15 -6 3 -14 1 -17 -5z"
       id="path915"
       style="fill:#c4674a;fill-opacity:1" />
    <path
       d="M9584 778 c4 -20 26 -21 26 -1 0 14 -2 15 -9 4 -6 -9 -10 -10 -14 -2 -4 8 -5 8 -3 -1z"
       id="path916"
       style="fill:#c4674a;fill-opacity:1" />
    <path
       d="m 11876.153,13121.26 c -286,-76 -484,-298 -553,-620 -24,-112 -27,-334 -8,-470 70,-486 297,-1053 590,-1470 72,-102 336,-463 433,-593.0005 l 89,-118 -64,-97 c -317,-476 -442,-1010 -362,-1542 63,-418 245,-759 552,-1034 54,-49 98,-92 98,-97 0,-5 -52,-33 -116,-63 -132,-60 -360,-189 -499,-282.0003 -352,-234 -854,-723 -1158,-1126 -169,-225 -250,-371 -306,-545 -124,-396 38,-771 372,-857 79,-21 244,-22 338,-2 214,45 443,172 685,380 49,42 89,73 89,70 0,-4 -12,-119 -27,-258 -25,-230 -27,-284 -27,-641 0,-418 8,-539 60,-875 72,-470 185,-857 330,-1140 159,-310 435,-480 782,-480 327,0 581,166 692,452 54,139 96,394 121,732 l 13,168 41,-6 c 92,-14 304,-18 394,-7 51,7 95,10 98,8 2,-3 10,-83 19,-178 49,-569 114,-798 274,-960 81,-82 159,-129 281,-170 79,-27 113,-32 219,-36 309,-13 543,93 724,327 279,359 495,1309 496,2170 0,216 -13,442 -41,699 -10,101 -17,186 -15,189 3,2 37,-24 75,-59 168,-150 400,-291 579,-352 106,-36 129,-41 242,-45 143,-5 215,8 317,60 127,63 242,218 278,374 25,107 21,268 -10,389 -46,183 -183,433 -364,665 -243,313 -630,702 -911,917 -247,189.0003 -579,384.0003 -790,466.0003 l -44,17 39,31 c 22,18 96,89 165,158 145,146 222,255 316,445 73,150 113,266 143,416 117,588 -24,1184 -405,1715 l -56,79 43,80.0005 c 23,45 45,85 49,89 4,4 36,-9 71,-29 144,-81.0005 255,-114.0005 389,-114.0005 161,0 277,47 386,156.0005 83,83 131,173 167,312 31,123 30,411 -1,586 -58,317 -181,529 -377,652 -84,52 -268,133 -440,193 -507,179 -884,155 -1156,-71 -158,-131 -247,-324 -364,-783 -29,-115 -59,-245 -65,-288 -7,-43 -16,-80 -21,-83 -4,-2 -52,4 -106,15 -294,60 -609,45 -914,-43 -46,-13 -85,-23 -87,-21 -2,1 -21,79 -42,171 -170,744 -318,1201 -510,1584 -112,222 -207,365 -320,484 -140,145 -299,244 -480,296 -111,32 -309,37 -410,10 z m 360,-246 c 92,-29 116,-48 69,-58 -34,-7 -53,0 -43,16 4,6 -2,5 -15,-2 -12,-6 -19,-15 -16,-21 4,-5 11,-7 16,-4 5,4 9,-5 9,-19 0,-27 9,-33 26,-16 7,7 11,7 12,-2 0,-7 2,-22 3,-33 1,-11 -2,-28 -6,-37 -5,-14 -2,-18 15,-18 12,0 18,-4 15,-10 -4,-6 -11,-7 -17,-4 -6,4 -14,1 -18,-7 -5,-7 -14,-14 -22,-15 -7,-1 -22,-5 -33,-9 -11,-3 -2,4 20,16 23,13 34,24 27,27 -7,2 -21,-3 -30,-11 -21,-19 -48,-25 -47,-12 0,6 3,9 8,8 13,-5 7,10 -9,22 -15,10 -15,13 1,29 14,14 20,14 33,4 14,-12 14,-11 1,9 -9,16 -16,19 -21,10 -7,-11 -12,-3 -10,14 1,4 -8,4 -20,1 -14,-3 -19,-1 -14,6 4,7 2,12 -3,12 -20,0 -11,-20 12,-30 12,-5 17,-9 11,-9 -17,-1 -66,26 -75,41 -6,9 -9,8 -9,-6 0,-16 -3,-17 -12,-8 -9,9 -16,8 -30,-5 -17,-15 -18,-15 -13,-1 4,9 1,19 -5,23 -6,3 -9,1 -8,-7 2,-7 -7,-14 -19,-16 -13,-2 -23,-7 -23,-12 0,-4 -8,-7 -17,-5 -10,1 -17,7 -16,12 1,6 -9,9 -23,7 -27,-3 -46,-14 -24,-14 9,0 7,-7 -6,-21 -19,-22 -19,-22 4,-10 16,8 22,18 18,29 -5,15 -5,15 6,1 7,-9 20,-19 28,-22 11,-5 9,-6 -5,-6 -31,2 -37,0 -30,-10 3,-6 18,-6 37,0 22,6 36,5 46,-4 12,-9 16,-9 19,1 7,20 21,14 25,-10 2,-17 9,-22 23,-20 14,2 16,0 7,-6 -7,-5 -25,-7 -39,-4 -18,3 -21,7 -11,13 8,5 8,9 2,9 -6,0 -19,-10 -28,-22 -14,-20 -15,-20 -7,-2 6,12 6,26 0,35 -8,12 -13,6 -11,-13 1,-3 -6,-12 -15,-20 -10,-8 -14,-8 -10,-1 4,6 3,14 -2,17 -5,3 -12,-5 -15,-19 -4,-16 -11,-22 -21,-19 -11,5 -15,0 -14,-17 1,-16 3,-19 6,-7 2,10 10,15 19,11 8,-3 14,0 14,7 0,6 4,9 10,5 6,-4 5,-15 -2,-30 -6,-13 -15,-22 -21,-18 -6,3 -7,2 -4,-4 4,-5 -5,-16 -18,-23 -14,-7 -25,-18 -25,-23 0,-5 6,-4 14,2 10,8 16,9 21,1 4,-6 3,-10 -2,-9 -10,3 -38,-7 -81,-28 -23,-12 -29,-19 -20,-24 8,-5 19,-1 28,10 8,10 32,22 53,25 39,7 45,14 25,34 -8,8 -8,12 -1,12 6,0 16,-6 22,-14 9,-11 9,-17 -1,-27 -19,-19 -15,-69 5,-84 9,-7 17,-22 17,-35 0,-17 4,-21 18,-15 31,12 53,14 47,4 -4,-5 -11,-7 -16,-4 -5,4 -9,0 -9,-8 0,-22 30,-30 31,-9 1,16 2,16 6,0 4,-14 8,-15 23,-6 11,7 21,10 24,7 8,-7 -5,-49 -15,-49 -5,0 -6,7 -2,16 5,14 3,15 -15,5 -14,-7 -23,-8 -27,-1 -8,13 -25,13 -25,-1 0,-5 5,-7 10,-4 9,6 14,-8 11,-27 -1,-11 23,-10 55,2 30,12 59,-4 50,-26 -3,-8 0,-11 10,-7 7,3 14,15 14,27 0,15 -3,17 -9,7 -5,-7 -11,-9 -14,-4 -3,5 3,15 15,22 11,7 17,8 14,2 -4,-5 2,-15 13,-21 16,-8 22,-7 29,6 8,14 10,13 23,-2 13,-16 12,-17 -5,-11 -16,6 -17,5 -6,-7 11,-14 14,-14 28,1 12,11 17,12 20,3 3,-8 7,-9 11,-2 3,6 18,12 33,14 36,5 61,27 48,43 -10,12 -4,25 12,25 5,0 6,-4 3,-10 -3,-5 -2,-10 4,-10 5,0 12,4 16,10 3,5 12,7 20,3 11,-4 13,-1 9,11 -3,9 -1,16 4,16 19,0 23,-18 7,-34 -9,-8 -11,-17 -6,-21 17,-10 34,34 20,51 -11,14 1,20 15,7 10,-11 37,-12 30,-2 -3,5 -9,7 -14,4 -10,-6 -23,25 -14,34 3,3 11,-2 18,-11 7,-10 15,-16 17,-13 3,2 5,-5 6,-15 1,-11 -2,-20 -7,-20 -5,0 -6,-8 -3,-17 6,-16 5,-17 -13,-3 -10,8 -16,10 -12,6 9,-11 -40,-38 -53,-30 -5,3 -9,0 -9,-7 0,-10 -3,-10 -11,-2 -13,13 -39,6 -39,-10 0,-8 3,-8 11,0 9,9 16,8 27,-3 8,-9 18,-11 21,-6 3,5 23,8 44,7 20,-2 37,1 37,6 0,5 -7,9 -16,9 -8,0 -13,4 -10,9 3,5 16,7 28,3 17,-4 20,-2 15,11 -3,9 2,26 13,39 11,13 19,17 20,11 0,-7 -4,-13 -10,-13 -15,0 -2,-24 23,-39 20,-13 21,-13 8,2 -7,9 -11,25 -8,36 3,13 -3,23 -22,32 -14,7 -29,12 -33,11 -5,-1 -6,8 -4,21 2,13 11,23 24,25 14,2 22,11 22,23 0,12 -5,17 -10,14 -6,-4 -18,-1 -27,7 -12,9 -15,9 -9,1 4,-7 2,-13 -3,-13 -6,0 -11,6 -11,13 0,20 16,38 30,35 7,-2 14,5 15,14 3,18 -18,20 -43,4 -7,-4 -19,-2 -28,5 -8,6 -27,12 -42,13 -15,1 -33,5 -39,9 -8,5 -13,3 -13,-3 0,-6 -4,-8 -10,-5 -5,3 -10,-1 -10,-9 0,-9 -4,-16 -10,-16 -5,0 -10,4 -10,9 0,12 -56,19 -72,9 -7,-4 -8,-8 -3,-8 6,0 11,-10 12,-22 0,-13 -1,-17 -4,-10 -3,6 -9,10 -14,6 -5,-3 -9,4 -9,15 0,12 -5,21 -11,21 -5,0 -7,4 -4,10 4,6 -3,6 -21,0 -23,-9 -25,-8 -15,4 15,18 49,27 57,15 3,-5 11,-9 17,-9 8,0 8,3 -1,9 -9,6 4,15 42,31 31,12 53,26 50,31 -3,5 -10,6 -16,3 -7,-4 -8,-2 -4,5 4,6 11,9 16,6 4,-3 13,2 21,11 10,13 9,16 -11,21 l -22,6 23,13 c 32,18 39,17 32,-3 -5,-15 -4,-16 8,-5 11,10 11,16 1,32 -19,31 -14,33 26,9 61,-37 143,-110 136,-121 -4,-6 -3,-8 3,-5 30,19 277,-333 256,-365 -3,-6 -2,-8 4,-5 11,7 101,-176 162,-328 97,-246 292,-887 275,-904 -2,-3 -7,5 -11,17 -5,21 -22,31 -24,15 -4,-45 -3,-80 3,-77 4,3 5,-2 2,-10 -8,-20 15,-86 29,-86 9,0 9,-2 1,-8 -17,-10 9,-32 26,-22 9,5 9,9 1,14 -6,4 -9,12 -5,17 3,5 1,16 -5,23 -6,7 -8,22 -4,32 8,22 22,-27 88,-321 63,-274 71,-300 101,-324 36,-28 99,-27 196,4 59,19 88,23 130,18 29,-3 56,-11 60,-17 5,-8 8,-7 8,2 0,6 8,12 18,11 10,0 12,-3 5,-6 -21,-8 -15,-22 7,-16 11,3 20,1 20,-5 0,-6 11,-10 25,-9 13,1 23,7 22,12 -1,6 -8,9 -14,9 -7,-1 -13,2 -13,7 0,15 32,10 53,-8 19,-17 20,-17 8,5 -11,20 -9,22 13,22 20,0 24,4 19,17 -5,13 -2,15 12,10 14,-6 15,-5 7,6 -9,10 -6,13 16,13 16,-1 26,4 24,12 -1,7 9,12 28,12 16,0 30,-4 30,-9 0,-5 10,-9 23,-9 12,0 33,0 47,0 14,-1 40,0 58,2 17,2 42,5 55,6 22,2 21,2 -3,11 -16,6 6,7 65,4 138,-7 187,-16 181,-31 -4,-11 -1,-11 13,-3 13,9 39,7 110,-10 109,-25 161,-26 201,-6 42,22 55,54 85,201 34,168 83,371 93,391 8,13 10,12 15,-6 3,-12 1,-19 -4,-15 -5,3 -9,1 -9,-4 0,-21 29,-20 45,1 9,12 13,16 10,9 -10,-21 25,-26 40,-6 8,11 14,24 14,29 0,6 -3,5 -5,-1 -3,-7 -14,-9 -26,-6 -20,5 -20,6 -3,19 11,7 14,13 8,13 -5,0 -10,12 -9,28 1,17 7,27 16,27 8,0 20,7 26,15 15,18 -3,61 -21,54 -7,-3 -16,0 -20,6 -5,8 -11,8 -21,-1 -21,-17 -18,-2 22,124 41,126 60,167 116,250 35,51 41,56 54,42 20,-20 25,-19 17,3 -3,9 -3,14 2,10 4,-4 15,-2 23,5 11,8 14,8 9,0 -10,-16 12,-28 26,-14 9,9 8,11 -5,6 -13,-5 -16,-1 -14,19 2,14 -1,23 -5,20 -5,-3 -9,0 -9,6 0,18 91,69 160,91 36,11 94,22 130,24 36,2 53,1 38,-1 -16,-3 -28,-12 -28,-19 0,-21 19,-29 26,-11 3,9 10,16 16,16 5,0 7,-3 5,-7 -3,-5 36,-8 86,-8 67,0 91,3 95,14 4,11 6,11 13,0 6,-10 9,-11 9,-1 0,7 13,12 29,12 60,0 384,-93 413,-119 4,-3 -5,-7 -19,-8 -32,-1 -76,-52 -61,-70 5,-7 7,-21 3,-33 -5,-14 -2,-20 10,-20 9,0 13,5 10,10 -8,13 1,13 26,0 10,-6 19,-20 19,-30 0,-11 4,-20 10,-20 5,0 6,-8 3,-17 -5,-14 -4,-16 8,-7 18,13 59,16 59,3 0,-5 -5,-9 -12,-9 -6,0 -9,-2 -6,-5 9,-9 38,7 32,17 -4,7 0,7 12,0 11,-5 25,-8 32,-6 7,1 8,0 3,-2 -6,-3 -7,-12 -4,-21 4,-10 2,-14 -4,-10 -6,4 -13,1 -16,-7 -4,-10 0,-12 14,-9 10,3 19,11 19,19 0,22 20,27 41,8 10,-9 19,-12 19,-7 0,17 32,25 43,11 6,-9 7,-6 4,10 -5,21 7,28 37,23 16,-3 25,23 13,38 -8,9 3,6 28,-7 49,-24 126,-104 153,-158 26,-53 55,-144 48,-151 -3,-4 -6,-1 -6,5 0,7 -7,12 -16,12 -9,0 -12,-5 -8,-11 5,-9 -1,-10 -19,-5 -21,5 -25,3 -21,-9 3,-8 10,-12 15,-9 5,3 9,-1 9,-9 0,-10 -7,-13 -20,-10 -11,3 -17,10 -13,17 3,6 4,9 0,6 -3,-3 -5,-8 -4,-11 1,-3 -5,-14 -13,-24 -9,-11 -11,-20 -5,-22 35,-12 52,-53 25,-60 -13,-4 -13,-3 0,6 11,8 11,11 2,11 -7,0 -18,-13 -23,-30 -7,-18 -15,-27 -22,-23 -7,4 -7,0 1,-9 11,-14 10,-16 -9,-11 -19,5 -20,4 -10,-16 7,-12 17,-19 22,-15 6,3 19,-2 29,-11 11,-10 31,-17 45,-17 14,0 28,-4 31,-9 3,-5 0,-9 -6,-9 -6,0 -8,-5 -4,-12 5,-7 3,-8 -7,-2 -20,12 -39,14 -39,3 0,-5 -7,-9 -16,-9 -14,0 -14,3 -4,15 11,14 7,19 -12,16 -5,0 -8,5 -8,12 0,7 -9,13 -20,14 -18,2 -18,0 -6,-13 9,-8 12,-22 9,-31 -5,-12 -3,-14 8,-8 8,5 6,-1 -5,-13 -18,-21 -18,-21 4,-17 19,4 21,1 16,-23 l -6,-27 15,25 c 8,14 14,20 15,15 0,-6 -7,-21 -16,-33 -15,-22 -15,-24 2,-37 11,-7 21,-11 24,-9 2,3 -2,9 -10,14 -8,6 -12,10 -7,11 4,1 12,3 17,4 6,1 16,3 23,4 7,1 5,6 -5,12 -10,5 -18,15 -18,22 0,7 4,6 10,-3 8,-12 12,-11 30,8 16,17 25,20 40,12 10,-5 21,-15 24,-22 3,-7 3,-3 0,10 -3,12 -1,22 5,22 6,0 11,5 11,11 0,8 -4,8 -14,0 -10,-8 -16,-8 -25,3 -9,10 -7,17 6,27 9,8 14,9 10,2 -4,-6 -3,-14 2,-17 16,-10 22,11 6,24 -10,9 -12,17 -5,30 5,10 7,28 5,40 -3,15 -1,20 5,14 16,-16 38,-226 34,-324 -11,-277 -121,-436 -316,-456 -118,-12 -248,40 -416,166 -82,61 -199,177 -169,167 11,-4 16,-3 12,4 -4,6 -13,8 -21,5 -19,-7 -137,135 -211,254 -69,110 -134,244 -188,382 -44,115 -74,148 -137,148 -51,0 -93,-25 -114,-68 -19,-41 -15,-81 21,-172 l 25,-65 -23,29 c -16,20 -28,27 -37,21 -8,-5 -11,-4 -6,3 3,6 2,13 -4,17 -5,3 -10,-1 -10,-9 0,-10 -6,-13 -17,-9 -10,4 -14,2 -10,-4 4,-6 2,-13 -4,-15 -7,-2 -7,-12 0,-31 6,-16 7,-26 2,-23 -4,3 -17,-4 -27,-17 -10,-12 -12,-16 -4,-9 19,16 33,15 27,-2 -3,-8 1,-17 8,-20 17,-6 9,-37 -8,-33 -13,2 -18,-41 -6,-49 5,-3 9,-10 9,-16 0,-7 -6,-6 -15,2 -8,7 -15,8 -15,2 0,-5 -9,-12 -19,-15 -15,-3 -18,-1 -14,12 3,12 1,11 -11,-3 -11,-14 -13,-22 -5,-27 6,-4 8,-12 5,-18 -9,-13 -9,-13 30,-2 29,8 31,7 27,-18 -2,-14 0,-20 3,-13 9,19 42,34 49,22 4,-6 3,-10 -2,-9 -20,3 -34,-2 -28,-11 3,-5 17,-9 30,-8 20,2 24,7 20,23 -3,11 -2,14 1,7 3,-6 10,-10 15,-6 5,3 9,-1 9,-10 0,-8 8,-13 18,-12 9,2 29,0 44,-5 24,-6 26,-5 22,17 -3,16 0,23 8,22 7,-2 12,5 12,15 -3,33 12,17 56,-60 45,-82 143,-227 203,-302 27,-34 32,-47 23,-56 -6,-7 -14,-11 -18,-8 -5,2 -8,0 -8,-6 0,-6 -8,-8 -17,-4 -16,5 -15,4 1,-9 12,-10 16,-20 11,-29 -6,-11 -5,-11 5,-2 10,9 18,9 34,1 l 21,-11 -20,24 -20,24 23,-19 c 12,-11 22,-27 22,-36 0,-10 7,-31 15,-46 8,-16 15,-22 15,-14 0,13 1,13 10,0 9,-14 12,-12 9,6 0,4 5,11 13,16 9,7 4,8 -15,4 -25,-6 -26,-5 -16,12 10,16 8,24 -7,45 -10,15 -24,27 -31,27 -17,0 -25,17 -8,17 8,0 44,-31 81,-68 l 67,-67 -32,-56 c -18,-31 -34,-56 -37,-56 -2,0 -2,12 1,28 6,25 5,26 -7,7 -9,-13 -24,-20 -45,-20 -20,1 -33,-4 -33,-12 0,-7 -6,-13 -12,-13 -10,0 -10,-2 0,-8 9,-7 6,-15 -13,-36 -14,-15 -25,-32 -25,-39 0,-9 -3,-8 -8,1 -12,18 -42,4 -35,-15 4,-11 2,-14 -5,-9 -7,4 -12,2 -12,-3 0,-6 4,-11 10,-11 5,0 9,-6.0005 7,-12.0005 -1,-7 6,-12 15,-12 9,1 19,-5 22,-13 8,-19 -24,-30 -35,-12 -5,8 -9,9 -9,3 0,-16 25,-35 36,-26 4,4 2,-1 -6,-11 -12,-17 -12,-17 12,-6 17,7 32,27 43,55 9,24 21,46.0005 25,49.0005 5,3 3,-10 -5,-29.0005 -18,-42 -19,-99 -3,-129 6,-12 45,-67 86,-121 42,-55 99,-140 129,-190 44,-75 51,-92 38,-99 -8,-4 -19,-5 -24,-2 -6,3 -9,-4 -8,-15 1,-15 7,-20 19,-17 10,3 18,1 18,-4 0,-5 -11,-9 -24,-9 -13,0 -30,-8 -37,-17 -10,-11 -10,-14 -1,-9 6,4 12,3 12,-3 0,-5 -15,-8 -34,-7 -26,2 -33,-1 -31,-13 1,-9 7,-16 13,-16 6,0 13,-3 17,-7 4,-3 20,-2 36,2 27,8 29,7 29,-17 0,-20 -4,-24 -17,-19 -17,6 -17,5 0,-8 9,-7 17,-18 17,-23 0,-16 49,-45 62,-37 7,4 8,3 4,-4 -4,-7 -1,-12 7,-12 8,0 20,-6 27,-14 9,-12 7,-18 -9,-33 -12,-9 -21,-22 -21,-28 0,-5 5,-3 10,5 9,13 10,13 10,0 1,-8 7,0 15,18 8,18 19,31 24,28 5,-3 7,4 4,16 -4,16 -2,20 4,13 6,-5 24,-53 41,-105 116,-354 121,-753 15,-1095 -36,-119 -143,-328 -220,-430 -85,-112 -219,-249 -234,-239 -7,4 -9,3 -6,-3 6,-9 -34,-44 -181,-158 -71,-55 -92,-87 -92,-139 0,-61 42,-96 180,-151 66,-26 120,-52 120,-57 0,-5 -6,-6 -12,-3 -7,4 -4,-1 6,-9 11,-9 25,-16 32,-16 6,0 17,-7 24,-15 7,-8 22,-14 34,-14 20,1 20,2 1,6 -28,7 -43,23 -22,23 54,0 547,-286.0003 532,-309.0003 -2,-5 3,-15 13,-22 15,-13 16,-12 3,4 -10,12 -10,17 -1,17 6,0 14,-9 17,-19 3,-11 10,-17 17,-15 7,3 32,-13 57,-35 l 44,-41 -32,11 c -19,6 -30,15 -26,22 3,6 1,7 -5,3 -6,-4 -9,-13 -6,-21 4,-8 10,-12 15,-9 5,3 9,0 9,-6 0,-6 12,-8 30,-5 25,4 40,-4 102,-56 139,-116 238,-211 232,-221 -4,-6 -3,-8 3,-5 5,3 68,-53 139,-126 189,-192 236,-245 228,-259 -4,-6 -3,-8 3,-5 13,8 193,-207 193,-229 0,-8 4,-13 8,-10 4,2 26,-20 47,-50 46,-63 54,-79 33,-72 -10,4 -15,-3 -16,-23 -2,-22 1,-27 13,-23 8,4 15,1 15,-6 0,-6 10,-10 22,-8 18,2 31,-12 74,-85 62,-105 111,-252 119,-356 6,-68 5,-73 -10,-61 -14,12 -18,12 -25,0 -5,-9 -1,-19 13,-30 16,-13 17,-19 7,-25 -9,-5 -11,-4 -6,3 4,7 3,12 -2,12 -5,0 -12,-12 -15,-26 -3,-20 0,-28 13,-31 17,-5 17,-9 5,-49 -51,-169 -194,-250 -387,-218 -21,4 -35,10 -32,15 3,5 -2,9 -10,9 -9,0 -16,5 -16,10 0,6 -9,10 -20,10 -11,0 -20,5 -20,10 0,6 -16,10 -35,10 -19,0 -35,-4 -35,-10 0,-14 -92,24 -175,72 -74,42 -194,127 -258,181 -38,32 -38,33 -12,35 15,1 24,-2 20,-8 -3,-6 -1,-10 4,-10 13,0 13,3 5,24 -3,8 -12,12 -20,9 -8,-3 -14,-1 -12,5 2,5 0,9 -3,8 -3,0 -13,5 -23,13 -9,8 -19,11 -23,8 -3,-4 -13,-1 -21,6 -13,10 -14,9 -8,-3 5,-8 -6,-1 -24,17 -29,27 -32,34 -20,48 11,14 11,16 -1,13 -8,-2 -17,-7 -20,-12 -4,-5 -61,44 -128,108 -108,104 -124,116 -156,116 -56,0 -91,-24 -110,-74 -16,-41 -16,-49 1,-133 9,-48 18,-111 18,-139 1,-29 4,-50 9,-47 4,2 7,-3 7,-11 0,-9 -7,-16 -17,-16 -9,0 -13,-3 -10,-7 4,-3 2,-12 -4,-19 -8,-10 -17,-11 -33,-3 -20,10 -20,10 -2,-5 11,-9 16,-16 12,-16 -4,0 0,-7 8,-16 9,-8 21,-12 27,-8 7,4 9,3 6,-3 -7,-11 16,-37 25,-28 7,7 36,-248 44,-375 3,-58 7,-118 9,-135 3,-16 4,-127 4,-245 0,-118 1,-248 1,-288 1,-41 -3,-72 -7,-69 -4,3 -7,-27 -7,-66 5,-275 -123,-966 -238,-1284 -27,-75 -33,-84 -52,-79 -19,5 -20,4 -3,-8 16,-13 15,-18 -14,-87 -38,-89 -96,-185 -150,-250 -49,-59 -134,-123 -150,-113 -7,4 -9,3 -5,-4 12,-19 -19,-19 -47,1 -16,10 -31,17 -34,13 -3,-3 -12,2 -20,12 -12,16 -14,16 -27,-1 -8,-11 -15,-14 -18,-7 -2,6 -11,12 -20,14 -24,3 -32,13 -17,22 8,5 10,3 4,-7 -7,-11 -6,-12 7,-2 8,7 17,12 19,10 2,-1 2,0 1,3 -2,3 -8,5 -13,5 -5,0 -9,3 -9,8 0,4 0,12 0,18 0,5 5,7 12,3 7,-4 8,-3 4,5 -9,14 -36,-3 -36,-23 0,-7 -6,-20 -13,-30 -13,-17 -14,-18 -20,-2 -4,9 -3,14 2,11 15,-8 25,15 12,28 -8,8 -15,6 -27,-9 -8,-10 -13,-14 -10,-7 4,6 1,15 -4,18 -7,5 -5,12 7,21 10,7 13,14 8,14 -21,0 -35,-23 -24,-37 8,-9 8,-13 1,-13 -6,0 0,-12 13,-26 13,-14 29,-23 35,-19 5,3 23,-3 39,-15 18,-12 32,-16 36,-10 8,13 35,13 35,0 0,-5 -6,-10 -14,-10 -8,0 -18,-5 -22,-12 -4,-7 -3,-8 4,-4 8,5 10,2 6,-8 -4,-11 0,-16 11,-16 9,0 13,4 10,10 -4,6 1,7 11,3 14,-5 13,-8 -7,-19 -74,-38 -294,-44 -391,-9 -50,17 -59,33 -33,55 21,18 19,41 -2,33 -16,-5 -16,-4 -3,8 9,8 22,23 30,34 10,15 10,17 1,8 -16,-13 -44,-6 -34,10 4,6 1,7 -7,2 -10,-6 -12,-4 -7,9 4,10 3,15 -3,11 -12,-7 -14,-46 -2,-44 18,3 32,-2 32,-12 0,-6 -5,-7 -12,-2 -19,11 -37,12 -44,2 -3,-6 -14,-7 -25,-4 -11,4 -19,2 -19,-6 0,-8 -5,-8 -17,2 -15,12 -16,12 -9,-6 5,-15 4,-17 -5,-8 -13,13 -4,34 14,27 7,-2 17,4 24,15 11,18 11,18 -17,4 -16,-8 -32,-19 -35,-24 -10,-14 -25,0 -18,17 3,9 0,14 -7,12 -6,-2 -21,10 -33,25 -19,24 -20,29 -7,38 13,9 12,10 -2,5 -22,-7 -48,50 -83,178 -34,125 -84,533 -72,591 2,14 1,22 -3,20 -4,-2 -8,15 -8,39 -2,39 1,44 23,50 14,4 23,11 20,16 -4,6 1,13 10,16 9,4 15,16 14,28 -3,38 1,47 14,40 6,-4 8,-3 4,2 -4,4 -20,9 -35,10 -37,2 -40,4 -18,13 17,7 18,8 3,14 -9,3 -23,0 -30,-8 -13,-12 -15,-9 -20,24 -7,59 -29,94 -69,116 -33,18 -40,18 -90,5 -29,-7 -60,-14 -68,-15 -8,-1 -23,-6 -32,-10 -10,-4 -23,-5 -30,-2 -7,3 -3,6 10,6 20,1 22,5 16,23 -6,21 -5,22 11,8 17,-14 17,-14 5,6 -10,17 -16,19 -26,10 -6,-6 -10,-14 -8,-18 6,-9 -24,-4 -33,7 -4,4 -3,5 3,2 14,-8 27,20 17,35 -3,6 -1,8 4,5 6,-4 18,2 28,13 10,11 13,20 7,20 -6,0 -14,-4 -17,-10 -3,-5 -11,-10 -17,-10 -6,0 -5,7 3,16 12,15 11,16 -10,9 -18,-5 -22,-4 -15,6 6,12 5,12 -8,1 -8,-7 -24,-9 -33,-5 -12,4 -16,3 -11,-5 3,-6 -2,-16 -12,-21 -24,-13 -53,15 -56,53 0,14 -5,25 -11,25 -24,-3 -34,2 -38,19 -3,9 -4,-10 -4,-42 1,-49 -1,-60 -16,-62 -10,-1 -14,2 -11,8 4,6 1,9 -7,6 -8,-3 -16,-13 -18,-23 -2,-13 2,-17 16,-13 11,3 27,0 37,-7 14,-11 15,-13 1,-18 -8,-4 -14,-1 -12,5 1,6 -11,11 -28,12 -18,0 -37,8 -47,20 -10,12 -17,16 -18,9 0,-7 6,-13 13,-14 10,0 10,-2 0,-6 -7,-2 -13,-11 -13,-19 0,-9 -5,-12 -10,-9 -12,7 -42,-13 -36,-24 3,-4 1,-13 -5,-21 -7,-13 -9,-12 -9,3 0,9 -5,17 -11,17 -6,0 -9,-7 -5,-15 7,-19 7,-19 -89,6 -118,32 -136,33 -173,9 -39,-24 -62,-73 -62,-130 0,-37 -3,-41 -22,-40 -48,4 -58,1 -51,-17 6,-16 5,-16 -10,-4 -15,12 -17,12 -11,-3 8,-20 34,-21 34,-2 0,8 5,18 12,22 8,5 9,2 5,-11 -6,-14 -3,-16 13,-12 11,3 20,1 20,-4 0,-5 -11,-9 -24,-9 -13,0 -29,-7 -36,-15 -15,-18 1,-20 19,-2 11,10 12,9 6,-2 -5,-9 -2,-18 8,-26 9,-7 18,-21 19,-31 5,-36 -14,-204 -22,-199 -4,3 -13,-2 -19,-9 -10,-12 -8,-13 8,-9 26,7 28,-14 4,-34 -10,-8 -12,-12 -5,-8 9,4 12,-5 12,-35 0,-23 -3,-39 -8,-36 -4,2 -6,-13 -4,-33 8,-83 -68,-438 -91,-424 -6,3 -7,1 -4,-5 9,-14 -3,-43 -14,-36 -5,3 -6,-2 -3,-10 3,-9 1,-16 -5,-16 -6,0 -11,7 -11,15 0,8 -5,15 -11,15 -5,0 -7,-4 -4,-10 8,-12 -5,-13 -24,-1 -9,6 -19,4 -29,-6 -12,-12 -17,-12 -24,-1 -8,10 -9,10 -5,-2 2,-8 11,-13 18,-11 8,2 23,6 33,9 13,3 17,1 12,-6 -5,-8 2,-12 19,-12 22,0 24,-3 16,-18 -5,-10 -28,-38 -51,-62 -23,-25 -37,-37 -30,-28 11,16 9,16 -21,8 -17,-5 -36,-7 -40,-4 -5,3 -9,-1 -9,-8 0,-10 -2,-10 -9,1 -5,8 -16,11 -25,8 -8,-3 -18,-1 -22,5 -4,7 -10,6 -16,-3 -7,-10 -8,-8 -3,8 6,23 -9,40 -21,22 -4,-8 -9,-7 -15,2 -6,10 -9,10 -9,2 0,-8 -9,-7 -29,4 -19,12 -28,24 -27,40 0,13 5,23 9,23 5,0 7,6 4,13 -2,6 8,17 22,24 l 26,12 -25,-2 c -33,-3 -81,-56 -70,-77 5,-9 5,-22 0,-30 -12,-19 -3,-30 23,-29 21,1 20,2 -3,10 l -25,8 25,-2 c 19,-2 24,-8 25,-29 0,-14 4,-30 9,-35 5,-5 6,-3 2,5 -5,8 0,12 14,12 15,0 20,5 17,15 -4,8 -2,17 3,20 14,8 13,-28 -1,-42 -7,-7 -3,-9 17,-5 19,3 25,2 19,-7 -9,-16 24,-41 44,-33 9,3 12,1 8,-5 -12,-19 -100,-44 -178,-50 -80,-6 -192,3 -185,16 3,4 -3,15 -13,23 -14,12 -22,13 -30,5 -8,-8 -11,-8 -11,1 0,9 -5,10 -19,2 -37,-19 -139,30 -225,110 -52,48 -111,128 -102,137 3,3 11,-6 17,-20 7,-15 16,-24 22,-20 6,3 7,1 3,-5 -3,-6 -2,-13 3,-17 6,-3 15,4 21,15 6,11 7,19 3,18 -4,-2 -9,1 -10,6 -1,5 -7,13 -15,17 -10,7 -9,9 4,9 9,0 20,4 23,10 3,6 -1,7 -9,4 -11,-4 -16,0 -16,11 0,9 4,14 9,10 5,-3 12,-1 16,5 3,5 1,10 -4,10 -6,0 -10,6 -9,12 2,7 -3,12 -9,10 -7,-1 -13,4 -13,12 0,8 -7,16 -15,20 -11,4 -15,-2 -15,-25 0,-17 -4,-28 -9,-24 -6,3 -9,18 -8,33 2,20 8,27 24,26 13,0 19,4 16,13 -4,9 4,13 23,13 27,0 27,1 8,15 -10,8 -23,14 -29,15 -5,0 -3,-5 5,-11 11,-8 7,-9 -17,-5 -27,4 -33,2 -33,-12 -1,-15 -2,-15 -15,2 -13,17 -15,17 -21,3 -3,-9 -10,-14 -15,-11 -5,3 -9,-1 -9,-8 0,-28 -64,125 -110,262 -49,148 -69,227 -52,201 7,-9 11,-10 17,-2 4,7 1,20 -6,29 -8,9 -1,6 14,-7 22,-20 30,-22 40,-12 9,10 9,12 -3,9 -8,-1 -16,1 -17,6 -1,5 -14,17 -30,28 -27,19 -27,19 -3,13 14,-4 22,-4 17,0 -4,5 0,17 10,27 9,10 13,21 10,25 -4,3 -7,2 -7,-4 0,-6 -9,-9 -20,-6 -11,3 -20,11 -20,18 0,7 -6,16 -12,18 -7,3 0,6 15,6 16,1 37,6 47,11 15,8 21,6 29,-7 6,-10 11,-13 11,-6 0,6 -4,15 -10,18 -5,3 -8,28 -6,55 1,28 -1,47 -6,44 -5,-3 -7,-12 -4,-20 3,-8 0,-14 -7,-15 -8,0 -8,-2 -1,-5 6,-3 9,-16 6,-29 -4,-22 -7,-23 -26,-13 -19,10 -20,10 -7,-5 11,-15 11,-17 -1,-17 -8,0 -20,11 -26,25 -10,23 -10,25 5,23 10,-2 18,3 19,10 1,6 2,17 3,23 0,5 6,7 11,4 6,-3 10,-1 10,4 0,6 -4,11 -10,11 -5,0 -10,5 -10,11 0,5 4,8 8,5 4,-2 14,5 22,17 12,20 12,21 -4,8 -14,-12 -19,-11 -36,4 -11,10 -20,13 -20,7 0,-7 4,-12 8,-12 5,0 9,-6 9,-12 0,-7 2,-17 3,-23 5,-20 0,-36 -9,-30 -5,3 -16,-2 -24,-10 -9,-8 -20,-15 -26,-15 -6,0 -11,-5 -11,-11 0,-6 7,-9 15,-5 9,3 15,0 15,-10 0,-12 -4,-12 -20,-4 -11,6 -20,13 -20,15 0,3 -13,71 -29,152 -16,82 -32,168 -35,193 -24,187 -46,368 -46,385 0,11 -3,65 -7,120 -14,177 -8,646 10,825 21,205 28,236 50,232 10,-2 17,4 17,13 0,10 -5,14 -12,10 -7,-4 -6,-1 2,7 8,7 15,22 14,33 0,11 3,27 8,36 8,18 -13,44 -25,32 -4,-3 -7,8 -7,26 0,19 4,30 10,26 6,-4 8,5 4,22 -3,15 4,81 15,145 31,170 29,202 -13,244 -68,68 -123,44 -295,-130 -47,-47 -88,-83 -93,-80 -4,3 -8,0 -8,-5 0,-6 -7,-11 -15,-11 -9,0 -12,6 -8,18 5,14 3,14 -14,-3 -14,-14 -18,-25 -12,-36 6,-11 1,-23 -15,-38 -12,-11 -25,-21 -28,-21 -4,0 -29,-21 -55,-48 -153,-148 -438,-286 -620,-299 -141,-10 -266,40 -316,126 -18,31 -18,31 7,40 22,9 25,20 16,51 -1,3 -5,-4 -10,-15 -8,-17 -9,-17 -7,7 1,15 5,24 9,22 12,-8 10,10 -3,23 -7,7 -2,19 16,42 15,17 21,29 13,26 -10,-4 -14,4 -16,27 -3,39 -1,38 -47,45 -24,4 -36,2 -32,-4 3,-5 2,-23 -3,-39 -7,-21 -9,-5 -6,61 3,53 14,119 27,160 29,93 86,205 104,205 8,0 15,-5 15,-11 0,-7 11,-8 32,-4 27,6 30,5 24,-11 -5,-17 -5,-17 6,-3 7,9 19,14 27,11 8,-3 11,0 7,7 -4,6 -3,11 2,11 5,0 9,10 8,22 -2,29 15,51 27,34 6,-7 7,-6 4,4 -2,8 -12,14 -21,12 -16,-3 -16,-1 -1,27 8,17 19,31 24,31 15,0 22,33 9,43 -10,6 -9,7 4,4 22,-8 30,3 15,21 -10,13 -8,15 20,9 20,-4 35,-2 39,5 4,6 3,8 -3,5 -5,-3 -10,0 -10,7 0,8 6,12 14,9 7,-3 13,0 13,6 0,6 -3,10 -7,10 -27,-4 -63,3 -58,11 3,6 1,10 -5,10 -15,0 -1,22 64,104 60,75 78,94 235,263 89,97 106,111 120,100 14,-10 14,-10 4,4 -11,13 -8,20 15,42 16,15 32,24 37,20 4,-5 5,-3 2,3 -12,22 273,282 478,436 113,85 215,149 227,142 6,-4 8,-3 5,3 -4,6 44,41 111,80 131,79.0003 229,126.0003 236,114.0003 8,-12 47,-6 56,8 4,8 12,11 16,8 5,-3 15,1 22,9 10,10 10,14 1,14 -22,0 -3,10 117,66 130,59 158,81 175,131 21,66 -8,111 -130,200 -76,55 -140,113 -253,230 -164,169 -286,380 -351,608 -76,267 -79,642 -6,921 31,120 88,272 89,238 0,-14 31,-14 50,0 13,10 13,9 1,-6 -7,-10 -24,-18 -37,-18 -14,0 -24,-6 -24,-14 0,-9 8,-12 26,-8 20,3 26,0 31,-17 6,-25 21,-28 30,-5 3,8 16,20 29,25 25,9 33,44 12,52 -7,2 0,4 15,4 35,1 45,10 27,26 -7,6 -10,7 -7,1 3,-6 0,-11 -7,-11 -8,0 -12,6 -9,14 3,7 9,13 14,13 5,0 9,7 9,15 0,8 5,15 11,15 5,0 7,5 4,10 -3,6 2,10 12,10 17,1 17,1 0,11 -9,5 -22,7 -28,3 -7,-4 -10,-1 -7,7 3,8 11,13 17,11 7,-1 10,2 7,7 -4,5 2,12 11,14 14,4 13,5 -4,6 -13,0 -23,-3 -23,-9 0,-5 -6,-9 -12,-7 -7,1 -12,-4 -10,-11 1,-8 -2,-11 -8,-7 -6,4 -4,15 6,30 9,14 20,22 25,19 14,-8 11,6 -5,22 -18,17 -56,19 -57,2 0,-10 -2,-10 -5,-1 -9,22 104,213 184,310 19,24 40,60 48,80 7,21 13,30 14,20 0,-10 5,-15 10,-12 6,3 10,-1 10,-10 0,-9 -4,-14 -9,-10 -5,3 -12,1 -16,-5 -3,-5 -1,-10 5,-10 6,0 8,-5 5,-10 -4,-6 -10,-8 -15,-5 -4,3 -7,-2 -6,-10 4,-27 13,-26 25,2 6,15 26,38 44,51 17,12 26,22 19,22 -14,0 -42,24 -42,36 0,4 8,0 18,-9 15,-14 19,-15 19,-2 0,8 -4,12 -9,9 -4,-3 -8,2 -8,11 0,10 -5,13 -12,9 -10,-6 -10,-5 -1,8 7,8 9,19 5,24 -4,4 1,2 11,-5 9,-7 17,-12 18,-10 7,34 6,36 -20,32 -18,-3 -22,-2 -13,5 11,7 10,10 -3,16 -28,10 -54,7 -62,-9 -7,-12 -28,10 -88,92.0005 -167,227 -288,398 -274,386 12,-10 17,-8 27,7 11,19 13,19 32,3 14,-12 16,-20 9,-29 -12,-15 -3,-37 12,-29 5,3 7,16 5,28 -3,12 -5,28 -5,35 -1,7 -5,10 -11,7 -5,-3 -10,-1 -10,4 0,6 -7,11 -16,11 -8,0 -12,5 -9,10 4,6 11,8 16,5 15,-10 34,8 35,33 0,12 -3,22 -6,22 -4,0 -15,-10 -23,-22 -15,-23 -15,-23 -10,-2 2,12 0,25 -6,29 -6,3 -11,3 -10,-2 3,-19 -3,-57 -8,-45 -9,23 -41,14 -45,-14 -3,-23 -13,-12 -87,87 -103,139 -195,279 -250,381 l -41,77 27,15 c 16,8 22,15 16,16 -7,0 -13,5 -13,11 0,5 4,8 9,4 5,-3 12,-1 15,4 3,5 -8,11 -24,13 -20,3 -30,0 -30,-8 0,-7 -4,-16 -10,-19 -9,-6 -104,180 -151,295 -41,102 -87,260 -78,266 5,3 9,2 8,-3 -4,-21 2,-34 12,-28 6,4 21,-3 34,-15 24,-22 41,-15 24,10 -5,8 -9,11 -9,7 0,-5 -5,-5 -10,-2 -6,4 -8,11 -4,16 4,6 11,6 19,-1 16,-14 35,-5 35,16 0,17 -16,19 -23,2 -3,-8 -6,-6 -6,4 -1,10 -6,17 -13,15 -14,-2 -16,25 -6,66 5,22 4,26 -5,19 -15,-11 -48,-12 -41,0 3,4 13,8 22,9 11,0 12,2 4,6 -6,2 -9,10 -5,16 3,7 -6,0 -21,-15 -18,-17 -28,-38 -28,-58 -1,-25 -3,-28 -10,-15 -5,9 -7,24 -3,33 3,9 3,13 -2,9 -4,-5 -16,22 -25,60 -73,278 -88,478 -53,688 30,175 138,331 279,401 40,19 94,39 122,44 72,13 185,2 274,-26 z m 95,-142 c 3,-18 1,-32 -3,-32 -5,0 -9,6 -9,13 0,6 -2,17 -3,22 -4,15 -1,39 4,34 3,-3 7,-19 11,-37 z m -212,7 c -6,-6 -9,-19 -6,-28 4,-9 3,-13 -2,-9 -4,4 -17,2 -29,-4 -19,-10 -20,-10 -7,5 12,16 8,22 -12,18 -5,-1 -6,3 -2,9 3,6 10,8 14,6 4,-3 13,-1 21,5 21,12 36,11 23,-2 z m 27,-20 c -12,-8 -9,-10 13,-6 15,2 27,0 27,-4 0,-5 -8,-9 -17,-10 -13,0 -11,-3 7,-11 l 25,-10 -22,-9 c -24,-9 -31,-21 -10,-16 11,2 12,-20 1,-52 -3,-11 -9,-10 -26,5 -19,17 -21,17 -15,2 4,-12 1,-18 -7,-18 -8,0 -22,-3 -32,-7 -10,-4 0,10 22,31 21,20 32,34 23,31 -19,-7 -35,10 -19,20 6,4 8,11 5,16 -4,5 -1,9 5,9 7,0 10,6 7,14 -6,16 1,26 17,26 6,0 4,-5 -4,-11 z m -80,-114 c 0,-8 -4,-15 -10,-15 -5,0 -10,5 -10,11 0,5 -5,7 -12,3 -7,-4 -8,-3 -4,4 10,17 36,15 36,-3 z m -60,-17 c 0,-11 -28,-10 -35,1 -3,6 4,9 15,8 11,-1 20,-5 20,-9 z m 162,-40 c -8,-8 -9,-4 -5,13 4,13 8,18 11,10 2,-7 -1,-18 -6,-23 z m -172,12 c 0,-5 -9,-10 -20,-10 -11,0 -20,5 -20,10 0,6 9,10 20,10 11,0 20,-4 20,-10 z m 100,0 c 0,-5 -5,-10 -11,-10 -5,0 -7,5 -4,10 3,6 8,10 11,10 2,0 4,-4 4,-10 z m 305,1 c -3,-5 3,-11 12,-13 15,-3 11,-11 -23,-47 -39,-42 -41,-43 -47,-22 -5,19 -2,22 13,18 13,-3 25,3 36,20 9,14 11,22 5,18 -7,-4 -18,-2 -26,5 -10,9 -15,7 -19,-8 -4,-11 -16,-22 -27,-25 -18,-5 -17,-2 8,23 17,18 32,25 38,19 11,-11 25,-12 24,-1 -2,12 1,22 7,22 3,0 3,-4 -1,-9 z m -345,-16 c 0,-12 -19,-12 -23,0 -4,9 -1,12 9,8 7,-3 14,-7 14,-8 z m 423,-10 c 5,-10 11,-29 13,-41 1,-16 -3,-21 -20,-20 -11,1 -27,-3 -35,-8 -12,-9 -13,-7 -8,6 5,15 2,16 -19,8 l -25,-10 26,34 c 14,18 25,38 25,44 0,17 31,7 43,-13 z m -398,-23 c -3,-3 -11,0 -18,7 -9,10 -8,11 6,5 10,-3 15,-9 12,-12 z m 198,6 c -13,-6 -23,-18 -23,-26 0,-9 -3,-13 -6,-9 -13,12 7,43 28,44 l 23,1 z m -268,-18 c 4,-6 11,-8 16,-4 5,3 17,0 26,-8 13,-10 17,-10 20,0 3,6 14,12 26,12 16,0 18,-3 9,-12 -16,-16 -44,-19 -60,-6 -9,8 -16,8 -24,0 -7,-7 -8,-12 -2,-12 5,0 10,-9 10,-20 0,-11 -6,-20 -14,-20 -7,0 -11,-4 -7,-9 3,-5 1,-12 -4,-15 -17,-11 -22,12 -6,28 17,16 14,62 -4,59 -6,-2 -11,2 -11,7 0,13 17,13 25,0 z m 325,-47 c 0,-6 -5,-15 -12,-19 -7,-4 -8,-3 -4,4 4,7 2,12 -4,12 -6,0 -9,4 -6,9 3,5 -1,11 -9,15 -8,3 -15,10 -15,16 0,15 49,-22 50,-37 z m -352,25 c 8,-10 4,-13 -13,-14 -19,-2 -21,1 -12,12 15,16 13,16 25,2 z m 183,-5 c 2,1 3,0 2,-2 -6,-10 21,-30 31,-24 7,5 4,1 -6,-9 -10,-9 -18,-21 -18,-26 0,-6 -9,-14 -20,-17 -11,-3 -20,-13 -20,-21 0,-17 12,-18 28,-2 7,7 12,8 12,2 0,-20 -23,-33 -40,-24 -24,13 -21,56 4,52 14,-3 17,1 12,14 -4,10 -1,21 6,26 10,6 9,12 -6,23 -16,12 -22,12 -35,2 -14,-11 -14,-10 -2,5 9,13 18,15 31,8 9,-5 19,-8 21,-7 z m -114,-50 c -3,-10 -5,-4 -5,12 0,17 2,24 5,18 2,-7 2,-21 0,-30 z m 233,22 c -7,-8 -18,-15 -24,-15 -6,0 -2,7 8,15 25,19 32,19 16,0 z m 150,-16 c 0,-15 -22,-33 -45,-37 -18,-4 -18,-2 5,21 28,27 40,33 40,16 z m -184,-10 c 3,-6 0,-15 -7,-20 -21,-13 -33,-11 -20,4 6,8 8,17 4,20 -3,4 -1,7 5,7 6,0 14,-5 18,-11 z m -142,-6 c -5,-5 -12,-12 -16,-18 -4,-6 -8,-2 -8,8 0,9 7,17 17,17 9,0 12,-3 7,-7 z m 214,-7 c -7,-8 -15,-12 -17,-11 -5,6 10,25 20,25 5,0 4,-6 -3,-14 z m -51,-18 c -3,-8 -6,-5 -6,6 -1,11 2,17 5,13 3,-3 4,-12 1,-19 z m -27,-48 c -1,-11 -4,-10 -16,5 -8,11 -20,19 -25,17 -6,-1 -8,2 -4,8 8,13 45,-11 45,-30 z m 92,1 c -4,-9 -7,-11 -9,-4 -3,7 -11,9 -19,6 -8,-3 -14,0 -14,6 0,6 11,10 24,9 17,-2 22,-7 18,-17 z m 3545,-627 c -3,-3 -12,-4 -19,-1 -8,3 -5,6 6,6 11,1 17,-2 13,-5 z m -4190,-20 c -3,-3 -12,-4 -19,-1 -8,3 -5,6 6,6 11,1 17,-2 13,-5 z m 4828,-166 c 5,4 5,2 1,-5 -8,-14 -36,-6 -36,9 0,7 5,6 13,-1 8,-6 18,-7 22,-3 z m -130,-88 c -3,-5 -13,-10 -21,-10 -8,0 -12,5 -9,10 3,6 13,10 21,10 8,0 12,-4 9,-10 z m 425,-364 c 0,-11 -19,-15 -25,-6 -3,5 1,10 9,10 9,0 16,-2 16,-4 z m -3540,-44 c 0,-5 -7,-9 -15,-9 -8,0 -12,4 -9,9 3,4 9,8 15,8 5,0 9,-4 9,-8 z m 1825,-12 c 3,-5 1,-10 -4,-10 -6,0 -11,5 -11,10 0,6 2,10 4,10 3,0 8,-4 11,-10 z m 1750,0 c 3,-5 1,-10 -4,-10 -6,0 -11,5 -11,10 0,6 2,10 4,10 3,0 8,-4 11,-10 z m -53,-52 c -7,-7 -12,-8 -12,-2 0,14 12,26 19,19 2,-3 -1,-11 -7,-17 z m 18,-23 c 0,-9 -6,-12 -16,-8 -13,5 -13,7 -2,14 17,11 18,11 18,-6 z m -1336,-21 c 3,-8 2,-12 -4,-9 -6,3 -10,10 -10,16 0,14 7,11 14,-7 z m 1356,-8 c 0,-9 -30,-14 -35,-6 -4,6 3,10 14,10 12,0 21,-2 21,-4 z m -1490,-37 c 0,-6 -4,-7 -10,-4 -5,3 -10,11 -10,16 0,6 5,7 10,4 6,-3 10,-11 10,-16 z m 155,2 c 3,-5 2,-12 -3,-15 -5,-3 -9,1 -9,9 0,17 3,19 12,6 z m 19,-37 c 3,-8 2,-12 -4,-9 -6,3 -10,10 -10,16 0,14 7,11 14,-7 z m 1317,-3 c -11,-7 -11,-10 0,-14 9,-3 10,-6 2,-6 -18,-1 -27,20 -12,30 7,4 16,6 18,3 3,-3 -1,-9 -8,-13 z m -4515,-398 c -10,-10 -19,5 -10,18 6,11 8,11 12,0 2,-7 1,-15 -2,-18 z m 1922,-19 c -10,-9 -88,-12 -88,-2 0,4 21,8 47,8 25,0 44,-3 41,-6 z m -418,-58 c 0,-2 -7,-7 -16,-10 -8,-3 -12,-2 -9,4 6,10 25,14 25,6 z m 2040,-65 c 0,-6 -4,-12 -8,-15 -5,-3 -9,1 -9,9 0,8 4,15 9,15 4,0 8,-4 8,-9 z m -3175,-391.0005 c 1,-22 0,-40 -2,-40 -9,0 -22,52 -17,65 11,27 19,16 19,-25 z m 3455,-576 c 43,-88 33,-91 -12,-4 -19,39 -32,70 -27,70 4,0 22,-30 39,-66 z m -80,50 c 0,-8 -19,-13 -24,-6 -3,5 1,9 9,9 8,0 15,-2 15,-3 z m -3625,-124 c 3,-5 -1,-10 -9,-10 -9,0 -16,5 -16,10 0,6 4,10 9,10 6,0 13,-4 16,-10 z m -1,-75 c -4,-8 -13,-15 -22,-15 -13,0 -12,3 4,15 24,18 25,18 18,0 z m -1387,-3770.0003 c 0,-8 -4,-12 -9,-9 -4,3 -8,9 -8,15 0,5 4,9 8,9 5,0 9,-7 9,-15 z m 1268,-815 c 3,-5 -1,-10 -10,-10 -9,0 -13,5 -10,10 3,6 8,10 10,10 2,0 7,-4 10,-10 z m 1999,-1611 c -9,-14 -27,-6 -30,14 -2,14 1,15 17,6 11,-5 17,-15 13,-20 z m 36,-52 c 11,-21 11,-21 -4,-3 -9,11 -16,16 -16,12 0,-4 -5,-4 -10,-1 -6,4 -8,11 -4,16 7,12 22,3 34,-24 z m 85,-17 c -3,-5 -11,-10 -16,-10 -6,0 -7,5 -4,10 3,6 11,10 16,10 6,0 7,-4 4,-10 z m -199,-32 c 4,-7 3,-8 -4,-4 -7,4 -12,3 -12,-3 0,-5 6,-12 13,-14 7,-3 5,-6 -5,-6 -18,-1 -24,19 -11,32 9,9 11,9 19,-5 z m 207,-28 c 4,-17 3,-18 -16,-8 -14,7 -17,13 -9,16 6,2 9,9 6,14 -4,6 -2,8 3,5 6,-4 13,-16 16,-27 z m -250,5 c -3,-9 -8,-14 -10,-11 -3,3 -2,9 2,15 9,16 15,13 8,-4 z m 25,-32 c -10,-2 -26,-2 -35,0 -10,3 -2,5 17,5 19,0 27,-2 18,-5 z m 49,1 c -3,-3 -12,-4 -19,-1 -8,3 -5,6 6,6 11,1 17,-2 13,-5 z m 557,-163 c 3,-5 -2,-15 -12,-22 -15,-12 -16,-12 -5,2 7,9 10,19 6,22 -3,4 -4,7 0,7 3,0 8,-4 11,-9 z m -2419,-191 c 3,-5 13,-6 22,-3 11,4 14,3 9,-5 -9,-14 -36,-16 -36,-3 0,5 -8,12 -17,14 -16,4 -16,5 -1,6 9,0 19,-3 23,-9 z m 185,-580 c 0,-5 -5,-10 -11,-10 -5,0 -7,5 -4,10 3,6 8,10 11,10 2,0 4,-4 4,-10 z m 673,-172 c -4,-7 -8,-16 -9,-20 -1,-5 -2,-11 -3,-14 0,-3 -6,-2 -12,1 -7,5 -4,14 7,26 19,22 29,25 17,7 z m 2258,-135 c 13,-16 12,-17 -3,-4 -10,7 -18,15 -18,17 0,8 8,3 21,-13 z m -404,-45 c -3,-8 -6,-5 -6,6 -1,11 2,17 5,13 3,-3 4,-12 1,-19 z"
       id="path1"
       style="fill:#c4674a;fill-opacity:1" />
  </g>
</svg>
